<?xml version="1.0" encoding="UTF-8" standalone="no"?>
<!-- Created with Inkscape (http://www.inkscape.org/) -->

<svg
   width="129.79724mm"
   height="144.23116mm"
   viewBox="0 0 490.57206 545.12563"
   version="1.1"
   id="svg1"
   inkscape:version="1.3.2 (091e20e, 2023-11-25, custom)"
   sodipodi:docname="quizzer.svg"
   inkscape:export-filename="quizzer.png"
   inkscape:export-xdpi="96"
   inkscape:export-ydpi="96"
   xmlns:inkscape="http://www.inkscape.org/namespaces/inkscape"
   xmlns:sodipodi="http://sodipodi.sourceforge.net/DTD/sodipodi-0.dtd"
   xmlns="http://www.w3.org/2000/svg"
   xmlns:svg="http://www.w3.org/2000/svg">
  <sodipodi:namedview
     id="namedview1"
     pagecolor="#ffffff"
     bordercolor="#000000"
     borderopacity="0.25"
     inkscape:showpageshadow="2"
     inkscape:pageopacity="0.0"
     inkscape:pagecheckerboard="0"
     inkscape:deskcolor="#d1d1d1"
     inkscape:document-units="mm"
     inkscape:zoom="0.69044442"
     inkscape:cx="487.36725"
     inkscape:cy="1515.6904"
     inkscape:window-width="1366"
     inkscape:window-height="745"
     inkscape:window-x="-8"
     inkscape:window-y="-8"
     inkscape:window-maximized="1"
     inkscape:current-layer="layer1"
     inkscape:export-bgcolor="#ffffffff" />
  <defs
     id="defs1" />
  <g
     inkscape:label="Layer 1"
     inkscape:groupmode="layer"
     id="layer1"
     transform="translate(-176.69776,-1252.2468)">
    <rect
       style="fill:#001cff;fill-opacity:1;stroke:#000000;stroke-width:1.71408;stroke-dasharray:none;stroke-opacity:1"
       id="rect51"
       width="63.670429"
       height="263.8428"
       x="-346.46054"
       y="1533.2107"
       transform="matrix(0.87237686,-0.48883393,0.48953536,0.87198345,0,0)" />
    <path
       d="m 453.46476,1252.2468 a 211.49483,215.13864 0 0 0 -209.4648,211.7156 207.87398,208.59838 0 0 0 207.64254,205.3498 207.87398,208.59838 0 0 0 207.87301,-208.5994 207.87398,208.59838 0 0 0 -206.05075,-208.466 z m -0.79882,57.1986 a 151.18108,151.70792 0 0 1 151.18161,151.7064 151.18108,151.70792 0 0 1 -151.18161,151.7086 151.18108,151.70792 0 0 1 -151.17966,-151.7086 151.18108,151.70792 0 0 1 151.17966,-151.7064 z"
       style="fill:#000000;fill-opacity:1;stroke:none;stroke-width:8.56063;stroke-dasharray:none;stroke-opacity:1"
       id="path56" />
    <rect
       style="fill:#ffffff;fill-opacity:1;stroke-width:1.25"
       id="rect52"
       width="262.14993"
       height="289.66846"
       x="176.69775"
       y="1471.5156" />
    <path
       d="m 453.46476,1253.6951 a 207.87398,207.87398 0 0 1 206.05075,207.7421 207.87398,207.87398 0 0 1 -207.87301,207.875 207.87398,207.87398 0 0 1 -207.64254,-204.6367 211.49483,214.39153 0 0 0 -0.23242,3.2793 211.49483,214.39153 0 0 0 211.49605,214.3906 211.49483,214.39153 0 0 0 211.49411,-214.3906 211.49483,214.39153 0 0 0 -211.49411,-214.3906 211.49483,214.39153 0 0 0 -1.79883,0.1309 z"
       style="fill:#ffffff;stroke:#ffffff;stroke-width:1.02436;stroke-opacity:1"
       id="path55" />
    <circle
       style="fill:#000000;fill-opacity:1;stroke-width:1.17063"
       id="path52"
       cx="629.30475"
       cy="1763.3566"
       r="34.015743" />
    <ellipse
       style="fill:none;fill-opacity:1;stroke:#ffffff;stroke-width:14.7033;stroke-dasharray:none;stroke-opacity:1"
       id="path57"
       cx="450.4408"
       cy="1466.4464"
       rx="144.51218"
       ry="148.13834" />
  </g>
</svg>
