<?xml version="1.0" encoding="UTF-8" standalone="no"?>
<!-- Created with Inkscape (http://www.inkscape.org/) -->

<svg
   width="129.79724mm"
   height="144.23116mm"
   viewBox="0 0 490.57206 545.12563"
   version="1.1"
   id="svg1"
   inkscape:version="1.3.2 (091e20e, 2023-11-25, custom)"
   sodipodi:docname="ico.svg"
   inkscape:export-filename="ico.svg"
   inkscape:export-xdpi="96"
   inkscape:export-ydpi="96"
   xmlns:inkscape="http://www.inkscape.org/namespaces/inkscape"
   xmlns:sodipodi="http://sodipodi.sourceforge.net/DTD/sodipodi-0.dtd"
   xmlns="http://www.w3.org/2000/svg"
   xmlns:svg="http://www.w3.org/2000/svg">
  <sodipodi:namedview
     id="namedview1"
     pagecolor="#ffffff"
     bordercolor="#000000"
     borderopacity="0.25"
     inkscape:showpageshadow="2"
     inkscape:pageopacity="0.0"
     inkscape:pagecheckerboard="0"
     inkscape:deskcolor="#d1d1d1"
     inkscape:document-units="mm"
     inkscape:zoom="1.5862247"
     inkscape:cx="353.35472"
     inkscape:cy="386.13696"
     inkscape:window-width="1366"
     inkscape:window-height="745"
     inkscape:window-x="-8"
     inkscape:window-y="-8"
     inkscape:window-maximized="1"
     inkscape:current-layer="layer1"
     inkscape:export-bgcolor="#ffffffff" />
  <defs
     id="defs1" />
  <g
     inkscape:label="Layer 1"
     inkscape:groupmode="layer"
     id="layer1"
     transform="translate(-176.69776,-1252.2468)">
    <path
       d="m 593.94815,1631.0679 a 207.87398,207.87398 0 0 1 -55.23437,31.6758 l 43.80663,78.0313 55.54492,-31.1231 z"
       style="fill:#001cff;stroke:#000000;stroke-width:1.71408"
       id="path9" />
    <path
       d="m 555.75434,1567.6042 a 158.54598,156.66552 0 0 1 -0.62305,0.7207 157.19709,158.56048 86.856893 0 0 0.64258,-0.6836 z"
       style="fill:#001cff;stroke:#000000;stroke-width:1.71408"
       id="path7" />
    <path
       d="m 496.62006,1465.0341 -55.54491,31.1231 55.32421,98.5449 a 157.19709,158.56048 86.856893 0 0 2.03906,-0.9434 158.54598,156.66552 0 0 0 13.99804,-7.2929 157.19709,158.56048 86.856893 0 0 4.10742,-2.4922 158.54598,156.66552 0 0 0 12,-8.3184 157.19709,158.56048 86.856893 0 0 4.59571,-3.6465 158.54598,156.66552 0 0 0 10.14843,-9.1211 157.19709,158.56048 86.856893 0 0 4.60156,-4.7011 158.54598,156.66552 0 0 0 0.62305,-0.7207 z"
       style="fill:#001cff;stroke:#000000;stroke-width:1.71408"
       id="path6" />
    <path
       d="m 438.84811,1668.2995 v 0 a 207.87398,207.87398 0 0 0 12.79492,1.0097 207.87398,208.59838 0 0 1 -12.79492,-1.0136 z"
       style="stroke-width:8.56063"
       id="path5" />
    <path
       d="m 244.04541,1471.5163 h 0.5957 a 207.87398,207.87398 0 0 1 -0.64063,-6.8398 211.49483,214.39153 0 0 0 -0.23242,3.2792 211.49483,214.39153 0 0 0 0.27735,3.5606 z"
       style="stroke-width:8.56063"
       id="path3" />
    <path
       d="m 453.46529,1252.2468 a 211.49483,215.13864 0 0 0 -209.46481,211.7148 207.87398,208.59838 0 0 0 0.70508,7.5547 h 57.68554 a 151.18108,151.70792 0 0 1 -0.9043,-10.3652 151.18108,151.70792 0 0 1 151.17967,-151.7051 151.18108,151.70792 0 0 1 151.18161,151.7051 151.18108,151.70792 0 0 1 -100.63865,142.9023 144.51218,148.13834 0 0 1 -52.76953,10.5312 144.51218,148.13834 0 0 1 -11.59179,-1.039 v 54.7539 a 207.87398,208.59838 0 0 0 12.79492,1.0136 207.87398,207.87398 0 0 0 11.2539,-0.3066 207.87398,208.59838 0 0 0 196.60544,-207.7539 207.87398,207.87398 0 0 0 -206.03708,-207.5566 211.49483,214.39153 0 0 1 1.79883,-0.1308 211.49483,214.39153 0 0 1 63.85546,10.1269 207.87398,208.59838 0 0 0 -65.65429,-11.4453 z"
       style="stroke-width:8.56063"
       id="path1" />
    <circle
       style="fill:#000000;fill-opacity:1;stroke-width:1.17063"
       id="path52"
       cx="634.97858"
       cy="1767.7697"
       r="34.015743" />
    <path
       d="m 596.06097,1483.6608 a 158.54598,156.66552 0 0 0 0.0664,-0.3242 158.54598,156.66552 0 0 0 0.01,-0.1406 157.19709,158.56048 86.856893 0 1 -0.0762,0.4648 z"
       style="fill:none;stroke:#ffffff;stroke-width:11.1475"
       id="path14" />
  </g>
</svg>
